<svg id="Group_368" data-name="Group 368" xmlns="http://www.w3.org/2000/svg" xmlns:xlink="http://www.w3.org/1999/xlink" width="464.31" height="446.884" viewBox="0 0 464.31 446.884">
  <defs>
    <clipPath id="clip-path">
      <rect id="Rectangle_219" data-name="Rectangle 219" width="464.31" height="446.884" fill="none"/>
    </clipPath>
    <clipPath id="clip-path-4">
      <rect id="Rectangle_215" data-name="Rectangle 215" width="103.358" height="7.751" fill="none"/>
    </clipPath>
    <clipPath id="clip-path-5">
      <rect id="Rectangle_216" data-name="Rectangle 216" width="6.408" height="11.4" fill="none"/>
    </clipPath>
    <clipPath id="clip-path-6">
      <rect id="Rectangle_217" data-name="Rectangle 217" width="7.27" height="7.27" fill="none"/>
    </clipPath>
  </defs>
  <g id="Group_367" data-name="Group 367" clip-path="url(#clip-path)">
    <line id="Line_10" data-name="Line 10" y1="89.183" x2="78.081" transform="translate(270.067 327.606)" fill="none" stroke="#20381e" stroke-miterlimit="10" stroke-width="13"/>
    <line id="Line_11" data-name="Line 11" y1="278.732" x2="81.33" transform="translate(346.953 52.207)" fill="none" stroke="#20381e" stroke-miterlimit="10" stroke-width="9"/>
    <path id="Path_1656" data-name="Path 1656" d="M2.056,860.441v-29.28l280.1.285.033,28.9" transform="translate(-1.052 -425.336)" fill="#457841"/>
    <g id="Group_355" data-name="Group 355">
      <g id="Group_354" data-name="Group 354" clip-path="url(#clip-path)">
        <path id="Path_1657" data-name="Path 1657" d="M282.225,890.925c0,6.107-62.7,11.057-140.052,11.057S2.121,897.032,2.121,890.925" transform="translate(-1.085 -455.92)" fill="#457841"/>
        <path id="Path_1658" data-name="Path 1658" d="M282.225,820.162c0,6.107-62.7,11.057-140.052,11.057S2.121,826.268,2.121,820.162,64.825,809.1,142.173,809.1s140.052,4.95,140.052,11.057" transform="translate(-1.085 -414.049)" fill="#8ff786"/>
        <path id="Path_1659" data-name="Path 1659" d="M714.466,657.9a6.367,6.367,0,1,1-6.366-6.366,6.367,6.367,0,0,1,6.366,6.366" transform="translate(-359.103 -333.413)" fill="#8ff786"/>
        <path id="Path_1660" data-name="Path 1660" d="M714.466,657.9a6.367,6.367,0,1,1-6.366-6.366A6.367,6.367,0,0,1,714.466,657.9Z" transform="translate(-359.103 -333.413)" fill="none" stroke="#20381e" stroke-miterlimit="10" stroke-width="1"/>
        <rect id="Rectangle_211" data-name="Rectangle 211" width="22.109" height="40.968" transform="translate(413.133 21.185)" fill="#8ff786"/>
        <path id="Path_1661" data-name="Path 1661" d="M830.244,79.111a38.527,38.527,0,1,1,38.526-38.527,38.57,38.57,0,0,1-38.526,38.527m0-72.171a33.644,33.644,0,1,0,33.644,33.644A33.682,33.682,0,0,0,830.244,6.941" transform="translate(-405.152 -1.053)" fill="#8ff786"/>
        <rect id="Rectangle_212" data-name="Rectangle 212" width="9.043" height="4.614" transform="translate(419.748 62.042)" fill="#20381e"/>
        <rect id="Rectangle_213" data-name="Rectangle 213" width="9.043" height="4.614" transform="translate(419.748 62.042)" fill="none" stroke="#20381e" stroke-miterlimit="10" stroke-width="1"/>
        <path id="Path_1662" data-name="Path 1662" d="M7.346,822.343A7.271,7.271,0,0,0,4.274,821.2a1.883,1.883,0,0,1-1.176-.661,1.561,1.561,0,0,1,.139-1.628c.732-1.165,2.364-1.393,3.6-1.646q2.393-.49,4.8-.935,9.832-1.824,19.782-2.9c13.34-1.451,26.766-1.932,40.162-2.606l22.837-1.151c.938-.047.943-1.513,0-1.465-14.091.71-28.184,1.369-42.272,2.141a319.318,319.318,0,0,0-41.251,4.635c-1.88.351-3.791.66-5.645,1.133a4.815,4.815,0,0,0-3.5,2.516,2.746,2.746,0,0,0,1,3.527c1.076.655,2.6.414,3.572,1.216.722.6,1.764-.436,1.036-1.036" transform="translate(-0.757 -413.591)" fill="#20381e"/>
        <path id="Path_1663" data-name="Path 1663" d="M326.444,849.628l18.293-.555,9.269-.281a68.847,68.847,0,0,1,8.932-.02c1.5.15,2.977.455,4.475.6a24.109,24.109,0,0,0,4.5-.015c2.967-.258,5.906-.787,8.871-1.079s5.946-.461,8.926-.506,5.948.106,8.925.188a46.683,46.683,0,0,0,9.8-.921q5.031-.923,10.061-1.852c.926-.17.534-1.583-.389-1.413l-8.885,1.636a50.8,50.8,0,0,1-8.806,1.106c-2.933.023-5.863-.214-8.8-.222q-4.471-.012-8.934.348c-2.975.24-5.918.673-8.878,1.044a34.911,34.911,0,0,1-4.381.321,29.844,29.844,0,0,1-4.41-.431,49.4,49.4,0,0,0-8.939-.317l-9.147.277-20.488.622c-.94.028-.944,1.494,0,1.465" transform="translate(-166.692 -431.786)" fill="#20381e"/>
        <path id="Path_1664" data-name="Path 1664" d="M353.23,809.61A81.014,81.014,0,0,1,368.318,809c5,.269,9.969,1.049,14.979,1.224a41.982,41.982,0,0,0,8.45-.492c.928-.156.534-1.568-.389-1.413-4.908.827-9.911.42-14.832-.066a116.46,116.46,0,0,0-14.807-.8,81.507,81.507,0,0,0-8.489.692.758.758,0,0,0-.732.732.736.736,0,0,0,.732.732" transform="translate(-180.386 -413.191)" fill="#20381e"/>
        <path id="Path_1665" data-name="Path 1665" d="M574.615,832.718q-.084,11.348.189,22.694a.733.733,0,0,0,1.465,0q-.274-11.345-.189-22.694a.733.733,0,0,0-1.465,0" transform="translate(-294.042 -425.771)" fill="#20381e"/>
        <path id="Path_1666" data-name="Path 1666" d="M464,896.441a21.5,21.5,0,0,1-7.64,2.282c-2.884.421-5.788.733-8.687,1.035-6.012.625-12.041,1.079-18.075,1.41s-12.082.537-18.127.664c-6.01.127-12.042.026-18.043.414-3.283.212-6.518.7-9.767,1.188a40.076,40.076,0,0,1-10.017.545c-.937-.1-.93,1.37,0,1.465,6,.611,11.926-1.068,17.873-1.587,6.026-.527,12.1-.411,18.141-.523,12.208-.227,24.419-.756,36.573-1.963,3.3-.328,6.6-.693,9.89-1.144a23.616,23.616,0,0,0,8.619-2.518.733.733,0,0,0-.739-1.265" transform="translate(-190.849 -458.69)" fill="#20381e"/>
        <path id="Path_1667" data-name="Path 1667" d="M.076,876.038c.493,1.815-.118,3.7-.073,5.535a4.4,4.4,0,0,0,2.557,4.16c1.8.787,3.9.636,5.816.913a61.55,61.55,0,0,1,6.73,1.468c2.228.583,4.451,1.2,6.711,1.643a60.505,60.505,0,0,0,7.051.926c4.768.372,9.563.442,14.341.609l16.494.578c.942.033.941-1.432,0-1.465-9.376-.329-18.768-.521-28.137-1.013-2.279-.12-4.56-.29-6.819-.615a62,62,0,0,1-6.687-1.4c-2.191-.566-4.373-1.177-6.587-1.649a56.264,56.264,0,0,0-6.211-.851,5.4,5.4,0,0,1-2.707-.815,2.993,2.993,0,0,1-1.085-2.4c-.073-2.019.563-4.01.02-6.011a.733.733,0,0,0-1.413.39" transform="translate(0 -447.837)" fill="#20381e"/>
        <path id="Path_1668" data-name="Path 1668" d="M708.5,661.863c-.273-1.591-.609-3.605.605-4.883a2.073,2.073,0,0,1,.753-.526,1.768,1.768,0,0,1,.268-.074c.139-.028-.033-.008.121-.014.08,0,.16,0,.24,0,0,0,.237.03.124.01a2.576,2.576,0,0,1,.445.126s.15.081.192.107c.017.01.184.13.1.066a1.241,1.241,0,0,1,.242.249.77.77,0,0,1,.16.392.733.733,0,1,0,1.413-.389A2.692,2.692,0,0,0,711.16,655a3.14,3.14,0,0,0-2.824.7c-1.931,1.627-1.625,4.343-1.246,6.555a.738.738,0,0,0,.9.511.749.749,0,0,0,.512-.9" transform="translate(-361.7 -335.139)" fill="#20381e"/>
        <path id="Path_1669" data-name="Path 1669" d="M854.073,42.3c-1.725-.009-3.448.055-5.166.2q-1.261.107-2.516.27c-.724.094-1.418.219-1.414,1.109,0,.829.156,1.681.212,2.51s.1,1.677.124,2.516q.084,2.628-.022,5.255c-.037.943,1.428.941,1.465,0q.1-2.626.022-5.255-.042-1.313-.132-2.625-.041-.6-.093-1.2a4.141,4.141,0,0,1-.1-1.238l-.336.438a2.639,2.639,0,0,1,.822-.112q.491-.059.984-.109,1.04-.107,2.083-.174c1.355-.088,2.712-.125,4.069-.118a.733.733,0,0,0,0-1.465" transform="translate(-432.406 -21.646)" fill="#20381e"/>
        <path id="Path_1670" data-name="Path 1670" d="M844.182,85.414q.3,9.759.6,19.518c.029.94,1.494.944,1.465,0q-.3-9.759-.6-19.518c-.029-.94-1.494-.944-1.465,0" transform="translate(-432 -43.348)" fill="#20381e"/>
        <path id="Path_1671" data-name="Path 1671" d="M867.635,43.634c.447-.036.895-.064,1.343-.08.221-.008,1.14-.157,1.3-.013s.058.842.061,1.058l.019,1.7q.033,3.032.066,6.064.067,6.063.134,12.127c.044,3.959.1,7.919.125,11.879.012,2.017.014,4.036-.033,6.054-.009.408.065.715-.352.885a5.535,5.535,0,0,1-1.362.26,17.438,17.438,0,0,1-3.025.059c-2.2-.121-4.378-.46-6.58-.556a47.936,47.936,0,0,0-6.625.176c-.931.088-.939,1.554,0,1.465a48.022,48.022,0,0,1,6.388-.186c2.165.084,4.306.4,6.465.544a19.177,19.177,0,0,0,3.146-.012,5.454,5.454,0,0,0,2.731-.7c.748-.582.671-1.568.687-2.42q.03-1.695.03-3.39c.007-8.768-.169-17.54-.266-26.308q-.041-3.7-.082-7.4c-.01-.924.143-2.205-.906-2.637a3.7,3.7,0,0,0-1.471-.126c-.6.012-1.195.044-1.791.092-.934.074-.941,1.539,0,1.465" transform="translate(-436.001 -21.526)" fill="#20381e"/>
        <path id="Path_1672" data-name="Path 1672" d="M805.235,68.772a25.044,25.044,0,0,1-2.834-7.8,54.33,54.33,0,0,1-1.378-8.857,14.43,14.43,0,0,1,.458-4.469,42.036,42.036,0,0,1,1.444-4.036,39.951,39.951,0,0,0,1.313-4.1,20.81,20.81,0,0,1,1.426-4.131,28.675,28.675,0,0,1,5.7-7.018.733.733,0,0,0-1.036-1.036,33.746,33.746,0,0,0-5.44,6.419c-1.561,2.621-1.973,5.617-2.993,8.446-1.044,2.895-2.3,5.62-2.357,8.756a44.586,44.586,0,0,0,1.211,9.258,28.2,28.2,0,0,0,3.218,9.3.733.733,0,0,0,1.265-.739" transform="translate(-409.153 -13.875)" fill="#20381e"/>
        <path id="Path_1673" data-name="Path 1673" d="M913.556,81.444a10.862,10.862,0,0,1-.07,5.525c-.358,1.684-.768,3.361-1.209,5.025a36.1,36.1,0,0,1-3.718,9.463,32.547,32.547,0,0,1-6.807,7.591c-2.636,2.288-5.3,4.67-8.472,6.193-3.564,1.712-7.51,2.464-11.364,3.215-.925.181-.533,1.593.389,1.413a53.111,53.111,0,0,0,10.459-2.8c3.472-1.456,6.286-3.8,9.13-6.217a38.331,38.331,0,0,0,7.363-7.758,34.037,34.037,0,0,0,4.179-9.781c.55-1.965,1.036-3.956,1.461-5.951a12.431,12.431,0,0,0,.07-6.3c-.278-.9-1.693-.515-1.412.389" transform="translate(-451.04 -41.217)" fill="#20381e"/>
        <path id="Path_1674" data-name="Path 1674" d="M897.239,10.735C891.451,6.085,885.013,1.851,877.591.467A26.289,26.289,0,0,0,871.15.045c-.936.059-.943,1.523,0,1.465,9.483-.587,17.933,4.54,25.053,10.261.728.585,1.771-.445,1.036-1.036" transform="translate(-445.439 0.001)" fill="#20381e"/>
        <path id="Path_1675" data-name="Path 1675" d="M834.72,139.413c2.752,3.038,6.916,3.763,10.777,4.322,1.111.161,2.222.323,3.321.55a18.641,18.641,0,0,0,3.234.528c2.2.061,4.4-.739,6.5-1.293l7.685-2.025a.733.733,0,0,0-.39-1.413l-6.4,1.687a46.666,46.666,0,0,1-6.228,1.522c-2.108.251-4.228-.506-6.3-.819a46.48,46.48,0,0,1-5.984-1.1,10.9,10.9,0,0,1-5.181-3c-.634-.7-1.667.338-1.036,1.036" transform="translate(-427.057 -70.694)" fill="#20381e"/>
      </g>
    </g>
    <g id="Group_366" data-name="Group 366">
      <g id="Group_365" data-name="Group 365" clip-path="url(#clip-path)">
        <g id="Group_358" data-name="Group 358" transform="translate(127.595 401.78)" opacity="0.54">
          <g id="Group_357" data-name="Group 357">
            <g id="Group_356" data-name="Group 356" clip-path="url(#clip-path-4)">
              <path id="Path_1676" data-name="Path 1676" d="M364.682,826.752c0,2.14-23.137,3.875-51.679,3.875s-51.679-1.735-51.679-3.875,23.137-3.875,51.679-3.875,51.679,1.735,51.679,3.875" transform="translate(-261.324 -822.877)" fill="#20381e"/>
            </g>
          </g>
        </g>
        <path id="Path_1677" data-name="Path 1677" d="M139.756,144.8a66.939,66.939,0,0,1-13.532,1.326c-2.59-.013-5.366-.248-7.472-1.723a17.256,17.256,0,0,1,1.561-3.049,13.845,13.845,0,0,1-14.647-3.507L94.86,126.459a17.706,17.706,0,0,1,3.284-9.195c1.524-2.07,3.495-3.792,5.168-5.738a13.763,13.763,0,0,0,2.454-3.78,7.135,7.135,0,0,0,.458-4.213h.025a16.275,16.275,0,0,0,10.038,5.576l.074-.012a.713.713,0,0,1-.025-.161,6.232,6.232,0,0,1,.533-4.647,3.729,3.729,0,0,1,3.309-1.6,5.332,5.332,0,0,1,3.358,1.809,9.933,9.933,0,0,1,2.205,9.7L130,118.07l5.118,4.659s-1.81,11.574,4.635,22.07" transform="translate(-48.543 -52.546)" fill="#c6705c"/>
        <path id="Path_1678" data-name="Path 1678" d="M191.82,156.854a73.527,73.527,0,0,1-10.112,2.788c-6.444-10.5-4.635-22.07-4.635-22.07a13.942,13.942,0,0,1,4.907-5.886,27.988,27.988,0,0,0-.5,5.106c0,13.074,10.025,19.852,10.335,20.063" transform="translate(-90.496 -67.389)" fill="#20381e"/>
        <path id="Path_1679" data-name="Path 1679" d="M287.169,124.25l-.818.149a1.183,1.183,0,0,1,.111-.149Z" transform="translate(-146.537 -63.583)" fill="#fff"/>
        <path id="Path_1680" data-name="Path 1680" d="M159.812,157.51a17.585,17.585,0,0,1-1.524,6.122,8.909,8.909,0,0,1-3.916,4.1q-1.227-2.286-2.3-4.622a13.5,13.5,0,0,0,2.4-1.822,13.791,13.791,0,0,0,3.767-13.817c1.685,2.95,1.908,6.605,1.574,10.038" transform="translate(-77.818 -75.467)" fill="#9b4d3e"/>
        <path id="Path_1681" data-name="Path 1681" d="M235.29,124.249a1.134,1.134,0,0,0-.111.149c-.483.582-.955,1.177-1.4,1.759A82.808,82.808,0,0,1,196.7,153.048h-.012c-.31-.211-10.335-6.989-10.335-20.063a27.985,27.985,0,0,1,.5-5.106c2.764-1.982,6.94-3.68,13.1-3.631,12.962.111,31.5.025,35.342,0" transform="translate(-95.364 -63.582)" fill="#c6705c"/>
        <path id="Path_1682" data-name="Path 1682" d="M86.034,101.507h0l-4.263-3.866a9.934,9.934,0,0,0-2.205-9.7,5.329,5.329,0,0,0-3.358-1.809,3.728,3.728,0,0,0-3.309,1.6,6.231,6.231,0,0,0-.533,4.647.7.7,0,0,0,.025.161l-.075.012a16.275,16.275,0,0,1-10.037-5.576h-.025a7.137,7.137,0,0,1-.458,4.214,13.781,13.781,0,0,1-2.454,3.78c-1.673,1.945-3.643,3.668-5.168,5.737a17.7,17.7,0,0,0-3.284,9.195L61.7,121.284a13.734,13.734,0,0,0,9.443,4.288c-2.193,4.449.93,9.963.855,14.809a7.768,7.768,0,0,1-.917,3.73c-1.673,3.036-5.353,4.238-7.931,6.531-4.225,3.755-5.217,10.174-9.393,13.991a11.921,11.921,0,0,1-13.4,1.6c-4.3-2.367-6.989-7.361-11.7-8.749-2.986-.893-6.159-.124-9.257.223s-6.63.1-8.687-2.231c-1.723-1.933-1.933-4.783-1.7-7.361a28.464,28.464,0,0,1,1.7-7.373c2.045-5.4,5.824-10.533,5.353-16.283a32.331,32.331,0,0,0-1.375-5.874c-1.053-3.842-1.487-8.068.062-11.748,3.185-7.522,13.1-9.8,17.671-16.568,1.537-2.28,2.379-4.956,3.718-7.361a21.022,21.022,0,0,1,23.768-9.6l.806.347a11.138,11.138,0,0,1,11.177-2.887,16.036,16.036,0,0,1,9.381,8.166,29.851,29.851,0,0,1,2.949,12.33c.186,3.445-.111,7.373,1.81,10.248" transform="translate(-4.574 -35.983)" fill="#20381e"/>
        <path id="Path_1683" data-name="Path 1683" d="M262.134,114.928a23.139,23.139,0,0,1-.323,3.2c-5.39,3.594-12.3,4.436-18.861,4.56a46.7,46.7,0,0,0-8.625.583c-4.313.88-8.167,3.184-12.095,5.18a57.489,57.489,0,0,1-13.842,5.13c-4.734,1.016-9.6,1.189-14.425,1.661a5.739,5.739,0,0,0-2.416.595,7.782,7.782,0,0,0-1.81,1.8,13.2,13.2,0,0,1-1.76,1.673c4.969,2.367,9.852,5.081,13.644,9.047,8.96,9.368,10.149,23.569,15.936,35.181,2.119,4.263,4.895,8.191,7.026,12.454,5.837,11.6,6.593,25.936.868,37.585l-.236-.112s-17.262-12.95-25.069-20.385c-4.833-4.6-8.81-10.1-13.929-14.374s-11.971-7.311-18.439-5.676c-2.032.52-3.941,1.475-5.96,2.069a14.472,14.472,0,0,0-1.884-3.432,38.394,38.394,0,0,1-8.092-.2,19.926,19.926,0,0,1-5.7-1.71,63.433,63.433,0,0,1,.273,8.117C126,202.045,91.2,211.673,92.847,228.514l-.732.037c-.731-.483-1.437-1-2.119-1.537V227a36.145,36.145,0,0,1-10.05-12.355c-.223-.446-.434-.893-.644-1.351v-.012a10.565,10.565,0,0,1,1.549-4.672c2.144-3.073,6.394-3.556,10.1-4.077a6.648,6.648,0,0,0,2.652-.769,7.56,7.56,0,0,0,1.747-1.7,29.216,29.216,0,0,1,7.1-6.419,14.391,14.391,0,0,1,9.17-2.181,11.5,11.5,0,0,1,3.867-9.307,53.663,53.663,0,0,1-6.952-28.39,50.928,50.928,0,0,1,.508-5.663,30.548,30.548,0,0,1,1.747-6.89c2.106,1.475,4.882,1.71,7.472,1.723a66.874,66.874,0,0,0,13.532-1.326,73.525,73.525,0,0,0,10.112-2.788h.012A82.81,82.81,0,0,0,179,113.937c.446-.582.917-1.177,1.4-1.76a1.186,1.186,0,0,1,.112-.149c2.7-3.308,5.911-6.456,10-6.171,2.937.211,5.626,2.255,8.55,1.921,2.838-.322,4.982-2.8,7.745-3.519,3.99-1.028,7.894,1.772,11.971,2.392,4.264.645,8.464-1.14,12.553-2.528a72.99,72.99,0,0,1,16.766-3.581c3.965-.372,8.29-.3,11.611,1.76a18.43,18.43,0,0,1,.78,1.933,28.036,28.036,0,0,1,1.649,10.694" transform="translate(-40.582 -51.362)" fill="#7dd875"/>
        <path id="Path_1684" data-name="Path 1684" d="M239.355,330.1a28.421,28.421,0,0,1-8.154,7c-22.454,13.21-65.541,5.291-66.5,5.105h-.013c-1.846-2.528-3.755-4.932-5.688-7.113-15.725,2.553-24.71,16.605-27.969,22.826-10.682-10.013-19.79-20.422-23.186-29.183a13.592,13.592,0,0,1-.868-3.581c-1.648-16.841,33.149-26.469,53.571-30.645,8.4-1.723,14.374-2.516,14.374-2.516.347-.074.694-.161,1.029-.26,2.02-.595,3.928-1.549,5.96-2.07,6.469-1.636,13.309,1.4,18.44,5.676s9.1,9.777,13.929,14.374c7.807,7.435,25.069,20.385,25.069,20.385" transform="translate(-54.718 -148)" fill="#55964e"/>
        <path id="Path_1685" data-name="Path 1685" d="M266.131,455.393s10.681,16.11,12.751,51.737a56.447,56.447,0,0,1-33.323,8.08c-8.364-34.587-20.3-122.818-20.3-122.818,1.115,1.524,2.206,3.1,3.271,4.7a12.72,12.72,0,0,0-3.271-4.7c.954.186,44.041,8.1,66.5-5.106Z" transform="translate(-115.275 -198.189)" fill="#457841"/>
        <path id="Path_1686" data-name="Path 1686" d="M297.74,681.931s-12.578,7.671-18.948,1.375c-1.945-2.677-6.766-20.967-11.958-42.492a56.443,56.443,0,0,0,33.322-8.08,247.984,247.984,0,0,1-2.416,49.2" transform="translate(-136.549 -323.794)" fill="#c6705c"/>
        <path id="Path_1687" data-name="Path 1687" d="M492.911,79.867a17.132,17.132,0,0,1-2.255,3,1.9,1.9,0,0,1,.372-.05,1,1,0,0,1,1.029.62,1.275,1.275,0,0,1-.087.769,7.52,7.52,0,0,1-2.106,2.813c-5.849,5.539-13.111,9.331-20.323,12.962a34.218,34.218,0,0,1,6.84,9.171c.31.632.558,1.512,0,1.933a1.561,1.561,0,0,1-1.537-.1c-3.755-1.71-7.237-3.929-10.868-5.874a32.583,32.583,0,0,0-11.586-4.052l-.359-.013a28.035,28.035,0,0,0-1.648-10.694c8.563-3.594,16.11-9.219,23.52-14.809a15.235,15.235,0,0,1,3.78-2.3c.4.334.2.966-.037,1.425a43.59,43.59,0,0,1-7.671,10.521c4.287-2.429,8.6-4.833,13.012-7.014a22.174,22.174,0,0,1,3.978-1.623.789.789,0,0,1,.533-.012c.347.161.3.669.173,1.041a12.043,12.043,0,0,1-2.268,3.965,33.817,33.817,0,0,1,4.461-2.441,7.038,7.038,0,0,1,2.392-.682.932.932,0,0,1,.768.21c.322.322.112.855-.111,1.239" transform="translate(-230.477 -37.478)" fill="#c6705c"/>
        <path id="Path_1688" data-name="Path 1688" d="M72.046,346.775v.012a6.959,6.959,0,0,1-6.32,5.155,12.491,12.491,0,0,1-6.072,8.39,3.907,3.907,0,0,1-2.144.607,4.241,4.241,0,0,1-1.883-.805,22.92,22.92,0,0,1-5.019-4.585l-.025-.012A6.158,6.158,0,0,1,49.666,357c-.334.372-.88.682-1.313.434a1.294,1.294,0,0,1-.458-.769,20.6,20.6,0,0,1-.669-3.1,4.723,4.723,0,0,1-2.627-2.875,11.527,11.527,0,0,1-.112-5.366,11.856,11.856,0,0,1,1.747-5.279,9.263,9.263,0,0,1,3.358-2.652c3.8-1.946,8.154-2.478,12.4-2.974a36.136,36.136,0,0,0,10.05,12.355" transform="translate(-22.632 -171.135)" fill="#c6705c"/>
        <path id="Path_1689" data-name="Path 1689" d="M205.7,444.788s-5.328-3.557-13.123-9.232A396.344,396.344,0,0,1,156.3,406c3.259-6.221,12.243-20.273,27.969-22.826,1.934,2.181,3.842,4.585,5.688,7.113h.012c11.537,15.8,20.769,36.358,20.769,36.358,4.374,17.46-5.044,18.142-5.044,18.142" transform="translate(-79.987 -196.085)" fill="#c6705c"/>
        <path id="Path_1690" data-name="Path 1690" d="M191.525,259.573a32.556,32.556,0,0,1-19.119-15.059,31.046,31.046,0,0,1-2.8-6.508.62.62,0,0,0-1.2.33,33.828,33.828,0,0,0,15.936,19.614,32.513,32.513,0,0,0,6.849,2.819.62.62,0,0,0,.33-1.195" transform="translate(-86.167 -121.575)" fill="#20381e"/>
        <path id="Path_1691" data-name="Path 1691" d="M300.247,143.486,295.1,158.652c-.257.757.94,1.081,1.2.329l5.144-15.165c.257-.757-.939-1.082-1.195-.33" transform="translate(-150.997 -73.209)" fill="#20381e"/>
        <path id="Path_1692" data-name="Path 1692" d="M314.212,143.016l-11.543,12.4c-.543.583.332,1.462.876.876l11.543-12.4c.543-.583-.331-1.462-.876-.876" transform="translate(-154.799 -73.088)" fill="#20381e"/>
        <path id="Path_1693" data-name="Path 1693" d="M262.034,399.229a95.157,95.157,0,0,1-29.921-1.159q-4.226-.847-8.361-2.077a.62.62,0,0,0-.33,1.195,96.263,96.263,0,0,0,30.021,3.92q4.308-.124,8.591-.64c.782-.093.792-1.333,0-1.239" transform="translate(-114.111 -202.63)" fill="#20381e"/>
        <path id="Path_1694" data-name="Path 1694" d="M346.256,374.08a45.584,45.584,0,0,1-26.3,12.04c-.785.082-.794,1.322,0,1.239a46.973,46.973,0,0,0,27.175-12.4c.582-.547-.295-1.422-.876-.876" transform="translate(-163.431 -191.343)" fill="#20381e"/>
        <path id="Path_1695" data-name="Path 1695" d="M202.606,386.835c-6.382-10.878-13.4-22.551-25.362-27.987a28.433,28.433,0,0,0-9.707-2.533c-.8-.058-.792,1.181,0,1.239,12.589.92,21.9,10.788,28.408,20.726,1.962,3,3.778,6.09,5.591,9.18a.62.62,0,0,0,1.07-.625" transform="translate(-85.431 -182.339)" fill="#20381e"/>
        <path id="Path_1696" data-name="Path 1696" d="M126.5,349.165c-.249-.754-1.446-.431-1.195.33a24.262,24.262,0,0,1-.479,16.487c-.292.742.905,1.064,1.195.329a25.352,25.352,0,0,0,.479-17.146" transform="translate(-63.856 -178.461)" fill="#20381e"/>
        <path id="Path_1697" data-name="Path 1697" d="M66.343,353.589a2.424,2.424,0,0,0-1.781-.145,3.193,3.193,0,0,0-.776-2.405,2.241,2.241,0,0,0-2.574-.444l-.55-.786c1.987-1.449,4.342-3.683,3.857-6.345-.143-.783-1.337-.451-1.2.33.27,1.48-.922,2.795-1.9,3.75a13.854,13.854,0,0,1-3.285,2.38,15.569,15.569,0,0,1-3.813,1.321,2.382,2.382,0,0,0-2.075,2.253c-.207,1.605-.339,3.223-.508,4.833-.073.7-.037,1.763-.593,2.291-.97.923-1.369-.631-1.455-1.335-.39-3.185-.722-6.377-1.082-9.565-.089-.784-1.329-.792-1.239,0l1.015,8.966c.127,1.126.177,2.507,1.252,3.18a1.973,1.973,0,0,0,2.632-.671c.736-1.044.677-2.569.8-3.785l.224-2.144a5.744,5.744,0,0,1,.369-2.367c.331-.473,1.181-.492,1.695-.617a14.227,14.227,0,0,0,1.894-.6,15.493,15.493,0,0,0,2.357-1.2l.715,1.022-5.911,7.293a.638.638,0,0,0,0,.876.624.624,0,0,0,.876,0l6.069-7.488a.764.764,0,0,0,.153-.34,1.025,1.025,0,0,1,1.483.192,3.028,3.028,0,0,1,.246,2.27.917.917,0,0,0-.077.132,30.1,30.1,0,0,1-5.18,8.224c-.526.6.347,1.476.876.876a31.878,31.878,0,0,0,5.319-8.386.389.389,0,0,0,.071-.055,1.233,1.233,0,0,1,1.457-.433,1.2,1.2,0,0,1,.613,1.387.62.62,0,0,0,1.195.33,2.458,2.458,0,0,0-1.182-2.786" transform="translate(-24.242 -175.535)" fill="#9b4d3e"/>
        <path id="Path_1698" data-name="Path 1698" d="M155.861,146.894c-.145-.783-1.34-.451-1.195.33a14.772,14.772,0,0,1-8.772,16.241c-.726.3-.407,1.5.33,1.2a16.048,16.048,0,0,0,9.637-17.766" transform="translate(-74.45 -74.943)" fill="#9b4d3e"/>
        <path id="Path_1699" data-name="Path 1699" d="M56.875,73.56c-1.823-3.4-5.738-4.992-9.464-4.878-4.441.135-8.3,2.766-11.3,5.854-3.449,3.549-5.954,7.872-9.277,11.527-3.5,3.853-8.083,6.087-12.31,9-3.6,2.478-7.075,5.874-8.047,10.3a12.221,12.221,0,0,0,.61,6.679c.785,2.276,1.887,4.481,2.182,6.9.508,4.163-1.141,8.225-2.734,11.979s-3.389,7.576-3.69,11.708a13.221,13.221,0,0,0,4.483,11,12.932,12.932,0,0,0,15.312,1.06c.672-.425.051-1.5-.625-1.07a11.811,11.811,0,0,1-12.385.174,11.9,11.9,0,0,1-5.585-10.092c0-3.931,1.643-7.661,3.158-11.21,1.5-3.513,3.093-7.11,3.36-10.97a15.015,15.015,0,0,0-.82-5.873,41.792,41.792,0,0,1-2.159-6.554c-.719-4.437,2.037-8.421,5.244-11.186,3.567-3.075,7.962-5,11.648-7.917s6.312-6.892,9.148-10.606C36.3,75.872,39.467,72.3,43.7,70.691c3.385-1.288,7.668-1.057,10.481,1.425a7.386,7.386,0,0,1,1.629,2.07c.377.7,1.447.078,1.07-.625" transform="translate(-1.435 -35.144)" fill="#20381e"/>
        <path id="Path_1700" data-name="Path 1700" d="M106.031,199.629c-.407-2.812-2.14-5.15-3.621-7.486-1.5-2.361-2.984-5.2-1.97-8.028.27-.752-.928-1.076-1.195-.329-1.667,4.654,2.209,8.659,4.25,12.434,1.133,2.1,2,4.68.792,6.939-1.032,1.923-3.041,3.049-4.912,4.016a16.913,16.913,0,0,0-5.456,3.721,19.137,19.137,0,0,0-2.867,5.347,17.405,17.405,0,0,1-3.131,5.6,11.458,11.458,0,0,1-5.449,3.225,11.2,11.2,0,0,1-12.223-5.1.62.62,0,0,0-1.07.625,12.312,12.312,0,0,0,21.381-.293c1.094-1.945,1.731-4.1,2.712-6.1a10.942,10.942,0,0,1,4.78-4.944c2-1.11,4.155-2,5.837-3.6a6.819,6.819,0,0,0,2.141-6.038" transform="translate(-35.354 -93.833)" fill="#20381e"/>
        <path id="Path_1701" data-name="Path 1701" d="M249.576,484.017s9.588,14.268,11.864,23.829,4.264,16,9.451,17.691c7.111,2.318,9.451-5.2,9.451-5.2l-4.831-52.877s-4.952-8.56-18.044-1.89c0,0,.857,12.277-7.891,18.45" transform="translate(-127.717 -236.947)" fill="#0a0a0a"/>
        <path id="Path_1702" data-name="Path 1702" d="M296.61,749.7l-14.2,31.216h-23.26c-2.838-11.289,10.124-16.023,10.124-16.023l.434-4,3.358-31c8.513,6.506,19.964,2.032,19.964,2.032,10.3,3.584,3.581,17.783,3.581,17.783" transform="translate(-132.409 -373.512)" fill="#0a0a0a"/>
        <path id="Path_1703" data-name="Path 1703" d="M295.611,478.858q-.758-6.2-1.516-12.4c-.1-.781-1.336-.791-1.24,0q2.685,21.972,5.369,43.944l1.516,12.4c.1.781,1.336.791,1.239,0q-2.684-21.972-5.369-43.944" transform="translate(-149.862 -238.401)" fill="#fff"/>
        <path id="Path_1704" data-name="Path 1704" d="M293.982,567.558a11.7,11.7,0,0,0-8.231,7.044.624.624,0,0,0,.433.762.634.634,0,0,0,.762-.433,10.437,10.437,0,0,1,7.366-6.179c.778-.172.449-1.367-.33-1.195" transform="translate(-146.213 -290.432)" fill="#fff"/>
        <path id="Path_1705" data-name="Path 1705" d="M254.573,490.618c-1.6-1.524-3.558.773-4.49,1.93a20.855,20.855,0,0,0-4.577,12.371,12.093,12.093,0,0,1-1.86-.263c-1.21-.24-2.419-.488-3.629-.732-1.184-.239-2.365-.507-3.554-.713a4.634,4.634,0,0,0-3.016.227,2.257,2.257,0,0,0-.52,3.815,5.435,5.435,0,0,0,2.7.937,23.225,23.225,0,0,0,3.513.231,23.625,23.625,0,0,0,7.567-1.352.653.653,0,0,0,.24-1.066c1.752-.445,2.79-1.982,3.565-3.533,1.15-2.3,2.262-4.624,3.391-6.936.645-1.318,2.065-3.59.671-4.916m-18.895,16.337c-.748-.113-1.984-.285-2.32-1.088-.235-.563.226-1.118.713-1.359a3.262,3.262,0,0,1,1.928-.125c1.235.193,2.462.488,3.687.735,1.253.253,2.5.511,3.759.758a12.666,12.666,0,0,0,2.06.268,22.331,22.331,0,0,1-6.228,1.035,21.548,21.548,0,0,1-3.6-.224m18-13.835a34.55,34.55,0,0,1-1.523,3.171l-1.756,3.594c-.79,1.617-1.593,4.147-3.443,4.843-.068.025-.141.027-.21.048A19.621,19.621,0,0,1,250.515,494a9.171,9.171,0,0,1,2.171-2.36c1.314-.83,1.3.639.994,1.48" transform="translate(-118.766 -250.809)" fill="#fff"/>
        <path id="Path_1706" data-name="Path 1706" d="M297.336,760.034l-9.02,19.279-4.51,9.639c-.649,1.389-1.188,2.906-2.907,3.127a49.845,49.845,0,0,1-4.989.161l-12,.317a.62.62,0,0,0,0,1.239l11.078-.293c1.8-.048,3.616-.048,5.418-.148a4.061,4.061,0,0,0,3.382-1.679,29.469,29.469,0,0,0,2.2-4.475l2.353-5.029,4.706-10.058,5.359-11.456c.336-.718-.732-1.348-1.07-.625" transform="translate(-134.746 -388.774)" fill="#fff"/>
        <path id="Path_1707" data-name="Path 1707" d="M295.865,741.337c-1.042-.457-2.522-.078-3.595.118a21.089,21.089,0,0,0-12.983,8.04,15.365,15.365,0,0,0-8.211-8.484,3.764,3.764,0,0,0-3.2.041,2.429,2.429,0,0,0-1.311,2.311,4.133,4.133,0,0,0,1.653,2.6,27.7,27.7,0,0,0,2.851,2.15,29.233,29.233,0,0,0,7.738,3.6.546.546,0,0,0,.669-.277,47.681,47.681,0,0,0,8.938-2.838,46.383,46.383,0,0,0,4.218-2.071q1.027-.571,2.024-1.193a6.426,6.426,0,0,0,1.675-1.272,1.722,1.722,0,0,0-.47-2.729m-27.358.784c1.165-.627,2.572.177,3.577.773a14.428,14.428,0,0,1,2.852,2.223,14.818,14.818,0,0,1,3.3,5.1,27.909,27.909,0,0,1-6.093-2.885c-1.05-.667-6.2-3.828-3.634-5.21m26.211,1.711a42.589,42.589,0,0,1-6.924,3.7,45.707,45.707,0,0,1-7.317,2.4,20.135,20.135,0,0,1,9.73-6.7,19.347,19.347,0,0,1,3.39-.747,4.464,4.464,0,0,1,1.574-.085c.946.285-.033,1.141-.453,1.422" transform="translate(-136.41 -379.031)" fill="#fff"/>
        <path id="Path_1708" data-name="Path 1708" d="M293.352,777.851a1.823,1.823,0,0,0-2.254-1.429c-.911.108-1.819.282-2.725.463l2.087-2.54,1.652-2.012a3.727,3.727,0,0,0,.995-1.645c.209-1.3-1.109-1.729-2.131-1.388a39.146,39.146,0,0,0-4.258,2c-.719.343-.091,1.412.625,1.07l3.062-1.461c.136-.065,1.264-.729,1.452-.508.226.265-.757,1.22-.882,1.372l-4.609,5.611a.625.625,0,0,0,.6,1.036l3.18-.585a5.537,5.537,0,0,1,1.439-.208c.668.062.608.651.312,1.111a18.133,18.133,0,0,1-2.159,2.349l-2.207,2.345c-.546.58.328,1.458.876.876l3.126-3.321c.812-.862,1.983-1.818,1.815-3.136" transform="translate(-146.46 -393.622)" fill="#fff"/>
        <path id="Path_1709" data-name="Path 1709" d="M277.268,236.8a115.7,115.7,0,0,0-25.651,20.273c-.549.578.326,1.456.876.876a114.488,114.488,0,0,1,25.4-20.079.62.62,0,0,0-.625-1.07" transform="translate(-128.673 -121.133)" fill="#20381e"/>
        <path id="Path_1710" data-name="Path 1710" d="M293.828,250l-22.96,10.577c-.724.333-.095,1.4.625,1.07l22.96-10.578c.724-.333.095-1.4-.625-1.07" transform="translate(-138.449 -127.9)" fill="#20381e"/>
        <g id="Group_361" data-name="Group 361" transform="translate(58.478 73.359)" opacity="0.8" style="mix-blend-mode: overlay;isolation: isolate">
          <g id="Group_360" data-name="Group 360">
            <g id="Group_359" data-name="Group 359" clip-path="url(#clip-path-5)">
              <path id="Path_1711" data-name="Path 1711" d="M122.081,150.825a12.144,12.144,0,0,1,3.662,5.681,7.046,7.046,0,0,1,.355,3.264,2.226,2.226,0,0,1-1.911,1.871c-1.172.087-1.79-.989-2.056-1.99-.413-1.547-1.716-6.1-1.975-6.822a3.047,3.047,0,0,1-.358-1.673,1.141,1.141,0,0,1,1.11-.91,1.9,1.9,0,0,1,1.172.579" transform="translate(-119.768 -150.245)" fill="#20381e"/>
            </g>
          </g>
        </g>
        <g id="Group_364" data-name="Group 364" transform="translate(67.4 64.588)" opacity="0.8" style="mix-blend-mode: overlay;isolation: isolate">
          <g id="Group_363" data-name="Group 363">
            <g id="Group_362" data-name="Group 362" clip-path="url(#clip-path-6)">
              <path id="Path_1712" data-name="Path 1712" d="M144.54,133.679a3.635,3.635,0,1,1-5.1-.627,3.635,3.635,0,0,1,5.1.627" transform="translate(-138.04 -132.281)" fill="#20381e"/>
            </g>
          </g>
        </g>
        <path id="Path_1713" data-name="Path 1713" d="M124.731,139.318a4.9,4.9,0,0,0,4.234-4.8c0-.141-.011-.271-.021-.412a.828.828,0,0,0-.468-.685.9.9,0,0,0-.848.067.76.76,0,0,0-.309.682,2.564,2.564,0,0,1,.011.306,3.275,3.275,0,0,1-.667,2.01,3.31,3.31,0,0,1-2.219,1.227.718.718,0,0,0-.519.316.812.812,0,0,0-.132.67.829.829,0,0,0,.939.616" transform="translate(-63.337 -68.239)" fill="#0a0a0a"/>
        <path id="Path_1714" data-name="Path 1714" d="M111.052,153.862a.837.837,0,0,0-.848.043.777.777,0,0,0-.332.682c0,.071.011.142.011.212a2.619,2.619,0,0,1-.726,1.8,2.591,2.591,0,0,1-1.922.816.792.792,0,0,0-.816.809.8.8,0,0,0,.187.542.785.785,0,0,0,.611.273,4.194,4.194,0,0,0,4.291-4.2v-.294a.823.823,0,0,0-.457-.685" transform="translate(-54.458 -78.689)" fill="#0a0a0a"/>
        <path id="Path_1715" data-name="Path 1715" d="M141.582,151.4a3.815,3.815,0,0,1-.1,4.1,4.265,4.265,0,0,1-1.892,1.3,4.377,4.377,0,0,1-2.173.354,1.484,1.484,0,0,1-1.179-1.545,2.643,2.643,0,0,1,1.211-1.887.694.694,0,0,1,.2-.121,4.565,4.565,0,0,1-.26-1.451,3.4,3.4,0,0,1,.685-2.29,1.614,1.614,0,0,1,2.017-.291,4.453,4.453,0,0,1,1.494,1.829" transform="translate(-69.718 -76.427)" fill="#fff"/>
        <path id="Path_1716" data-name="Path 1716" d="M104.882,149.359a1.148,1.148,0,0,0-1.534.4,17.544,17.544,0,0,0-1.546,2.826,1.236,1.236,0,0,0-.12.837,1.145,1.145,0,0,0,.522.7,1.133,1.133,0,0,0,.837.12,1.082,1.082,0,0,0,.7-.522,17.5,17.5,0,0,1,1.545-2.826,1.122,1.122,0,0,0-.4-1.534" transform="translate(-52.019 -76.359)" fill="#0a0a0a"/>
        <path id="Path_1717" data-name="Path 1717" d="M122.437,128.843a27.609,27.609,0,0,0-3.238,2,1.224,1.224,0,0,0-.539.684,1.12,1.12,0,0,0,.784,1.378,1.084,1.084,0,0,0,.839-.1,27.61,27.61,0,0,1,3.238-2,1.121,1.121,0,0,0-1.083-1.963" transform="translate(-60.704 -65.865)" fill="#0a0a0a"/>
        <path id="Path_1718" data-name="Path 1718" d="M516.355,92.7l-14.733,7.222c-.716.351-.089,1.42.625,1.07l14.733-7.222c.716-.351.089-1.42-.625-1.07" transform="translate(-256.537 -47.401)" fill="#9b4d3e"/>
        <path id="Path_1719" data-name="Path 1719" d="M508.368,88.674l-11.029,5.932c-.7.378-.077,1.448.625,1.07l11.029-5.932c.7-.377.078-1.448-.626-1.07" transform="translate(-254.349 -45.337)" fill="#9b4d3e"/>
      </g>
    </g>
  </g>
</svg>
