<svg id="Group_370" data-name="Group 370" xmlns="http://www.w3.org/2000/svg" xmlns:xlink="http://www.w3.org/1999/xlink" width="282.802" height="78" viewBox="0 0 282.802 78">
  <defs>
    <clipPath id="clip-path">
      <rect id="Rectangle_221" data-name="Rectangle 221" width="282.802" height="78" fill="none"/>
    </clipPath>
  </defs>
  <g id="Group_369" data-name="Group 369" clip-path="url(#clip-path)">
    <path id="Path_1720" data-name="Path 1720" d="M39.191,29.331a22.543,22.543,0,0,1,12.955,6.163q5.811,5.358,5.811,16.024T49.48,69.729a29.758,29.758,0,0,1-20.5,7.547,29.754,29.754,0,0,1-20.5-7.547Q0,62.183,0,51.517H12.879a11.326,11.326,0,0,0,4.7,9.106,17.637,17.637,0,0,0,11.4,3.773,17.641,17.641,0,0,0,11.4-3.773,11.166,11.166,0,0,0,0-18.212,17.641,17.641,0,0,0-11.4-3.773H16.149L36.882,12.879H5.828V0H61.735Z" transform="translate(0)" fill="#20381e"/>
    <path id="Path_1721" data-name="Path 1721" d="M375.324,52.485a26.112,26.112,0,0,1-4.95,6.776,25.75,25.75,0,0,1-36.425,0A24.817,24.817,0,0,1,326.4,41.049a24.818,24.818,0,0,1,7.546-18.212,25.75,25.75,0,0,1,36.425,0,25.811,25.811,0,0,1,5.342,7.6h13.689a37.452,37.452,0,0,0-9.926-16.709,38.624,38.624,0,0,0-54.636,0,37.226,37.226,0,0,0-11.32,27.318,37.226,37.226,0,0,0,11.32,27.318,38.624,38.624,0,0,0,54.636,0,37.6,37.6,0,0,0,9.7-15.882Z" transform="translate(-219.346 -1.687)" fill="#20381e"/>
    <path id="Path_1722" data-name="Path 1722" d="M386.034,109.685c-3.053,0-4.927,1.844-4.927,5.713v5.985h-4.595v-16.2h4.595v3.265c.937-2.237,2.449-3.688,5.169-3.567v4.806Z" transform="translate(-263.414 -73.37)" fill="#20381e"/>
    <path id="Path_1723" data-name="Path 1723" d="M427.375,114.9H416.1a3.758,3.758,0,0,0,3.96,3.174,5.309,5.309,0,0,0,3.93-1.663l2.63,2.328a8.559,8.559,0,0,1-15.084-5.351v-.06c0-4.625,3.295-8.434,8.011-8.434,5.411,0,7.89,4.2,7.89,8.8v.06c0,.454-.03.725-.06,1.149m-7.829-6.318c-1.9,0-3.144,1.36-3.507,3.446h6.922c-.272-2.056-1.481-3.446-3.416-3.446" transform="translate(-287.917 -73.386)" fill="#20381e"/>
    <path id="Path_1724" data-name="Path 1724" d="M473.222,86.378h4.836v4.081h-4.836Zm.121,5.864h4.595v16.2h-4.595Z" transform="translate(-331.074 -60.431)" fill="#20381e"/>
    <path id="Path_1725" data-name="Path 1725" d="M520.526,121.4v-9.038c0-2.177-.968-3.3-2.691-3.3s-2.781,1.119-2.781,3.3V121.4H510.46v-9.038c0-2.177-.968-3.3-2.69-3.3s-2.781,1.119-2.781,3.3V121.4h-4.595V105.2h4.595v2.3a5.788,5.788,0,0,1,4.776-2.6,4.848,4.848,0,0,1,4.564,2.569,6.672,6.672,0,0,1,5.32-2.569c3.416,0,5.472,2.056,5.472,5.955V121.4Z" transform="translate(-350.084 -73.386)" fill="#20381e"/>
    <path id="Path_1726" data-name="Path 1726" d="M600.316,121.682v-1.753a6.23,6.23,0,0,1-4.9,2.056c-3.053,0-5.562-1.753-5.562-4.958v-.06c0-3.537,2.691-5.169,6.529-5.169a11.514,11.514,0,0,1,3.96.665v-.272c0-1.9-1.179-2.962-3.476-2.962a11.923,11.923,0,0,0-4.474.877l-1.148-3.506a14.292,14.292,0,0,1,6.287-1.3c5.018,0,7.225,2.6,7.225,6.983v9.4Zm.091-6.529a7.124,7.124,0,0,0-2.933-.6c-1.965,0-3.174.786-3.174,2.237v.061c0,1.239,1.028,1.965,2.509,1.965,2.146,0,3.6-1.179,3.6-2.842Z" transform="translate(-412.674 -73.668)" fill="#20381e"/>
    <path id="Path_1727" data-name="Path 1727" d="M655.3,126.3a15.372,15.372,0,0,1-7.164-1.693l1.572-3.446a10.577,10.577,0,0,0,5.472,1.481c3.144,0,4.625-1.512,4.625-4.414v-.786a6.337,6.337,0,0,1-5.29,2.63c-3.779,0-7.194-2.751-7.194-7.557v-.06a7.132,7.132,0,0,1,7.194-7.557,6.559,6.559,0,0,1,5.23,2.418V105.2h4.595v12.545c0,6.106-3.023,8.555-9.038,8.555m4.5-13.845a3.95,3.95,0,0,0-7.89,0v.06a3.7,3.7,0,0,0,3.93,3.748,3.744,3.744,0,0,0,3.96-3.748Z" transform="translate(-452.876 -73.386)" fill="#20381e"/>
    <path id="Path_1728" data-name="Path 1728" d="M715.046,86.378h4.836v4.081h-4.836Zm.121,5.864h4.595v16.2h-4.595Z" transform="translate(-500.258 -60.431)" fill="#20381e"/>
    <path id="Path_1729" data-name="Path 1729" d="M752.464,121.4v-9.038c0-2.177-1.028-3.3-2.781-3.3s-2.871,1.119-2.871,3.3V121.4h-4.595V105.2h4.595v2.3a5.732,5.732,0,0,1,4.746-2.6c3.476,0,5.5,2.3,5.5,6.015V121.4Z" transform="translate(-519.267 -73.386)" fill="#20381e"/>
    <path id="Path_1730" data-name="Path 1730" d="M815.215,114.9H803.94a3.758,3.758,0,0,0,3.96,3.174,5.309,5.309,0,0,0,3.93-1.663l2.63,2.328a8.558,8.558,0,0,1-15.084-5.351v-.06c0-4.625,3.295-8.434,8.011-8.434,5.411,0,7.89,4.2,7.89,8.8v.06c0,.454-.03.725-.06,1.149m-7.829-6.318c-1.9,0-3.144,1.36-3.507,3.446H810.8c-.272-2.056-1.481-3.446-3.416-3.446" transform="translate(-559.256 -73.386)" fill="#20381e"/>
    <path id="Path_1731" data-name="Path 1731" d="M870.772,108.445v-2.327a5.951,5.951,0,0,1-5.048,2.63c-3.779,0-7.376-2.963-7.376-8.373v-.06c0-5.411,3.537-8.373,7.376-8.373a6.222,6.222,0,0,1,5.048,2.418V86.378h4.595v22.067Zm.06-8.131c0-2.69-1.783-4.474-3.93-4.474s-3.96,1.753-3.96,4.474v.06c0,2.691,1.814,4.474,3.96,4.474s3.93-1.783,3.93-4.474Z" transform="translate(-600.514 -60.431)" fill="#20381e"/>
    <rect id="Rectangle_220" data-name="Rectangle 220" width="4.897" height="4.836" transform="translate(277.905 43.177)" fill="#7dd875"/>
    <path id="Path_1732" data-name="Path 1732" d="M188.137,19.268a33.637,33.637,0,0,1,6.54,1.409,27.934,27.934,0,0,1,16.854,14.389,28.362,28.362,0,0,1,3.22,12.98,29.4,29.4,0,0,1-1.509,9.156,27.717,27.717,0,0,1-14.388,16.854,28.251,28.251,0,0,1-12.93,3.22,29.4,29.4,0,0,1-9.156-1.509,27.9,27.9,0,0,1-16.9-14.388,28.352,28.352,0,0,1-3.22-12.98,29.409,29.409,0,0,1,1.509-9.156,28.473,28.473,0,0,1,6.691-11.219L188.741,0h15.294ZM190.7,32.9a16.007,16.007,0,0,0-5.081-.855,18.922,18.922,0,0,0-8.427,2.44q-4.754,2.441-6.817,8.779a15.981,15.981,0,0,0-.855,5.081,18.758,18.758,0,0,0,2.44,8.4q2.439,4.73,8.779,6.792a15.985,15.985,0,0,0,5.081.855,18.92,18.92,0,0,0,8.4-2.414q4.728-2.415,6.792-8.754a16.461,16.461,0,0,0,.855-5.131,18.915,18.915,0,0,0-2.415-8.4q-2.415-4.729-8.754-6.792" transform="translate(-109.59)" fill="#7dd875"/>
  </g>
</svg>
