<?xml version="1.0" standalone="no"?>
<!DOCTYPE svg PUBLIC "-//W3C//DTD SVG 20010904//EN"
 "http://www.w3.org/TR/2001/REC-SVG-20010904/DTD/svg10.dtd">
<svg version="1.0" xmlns="http://www.w3.org/2000/svg"
 width="700.000000pt" height="700.000000pt" viewBox="0 0 700.000000 700.000000"
 preserveAspectRatio="xMidYMid meet">
<metadata>
Created by potrace 1.14, written by Peter Selinger 2001-2017
</metadata>
<g transform="translate(0.000000,700.000000) scale(0.100000,-0.100000)"
fill="#000000" stroke="none">
<path d="M450 5279 l0 -246 586 1 c322 1 587 -1 589 -4 2 -3 -80 -109 -182
-235 -102 -127 -198 -246 -213 -265 -15 -19 -107 -133 -204 -253 -97 -120
-176 -222 -176 -225 0 -4 127 -6 282 -5 208 2 300 -1 348 -11 183 -39 351
-151 417 -280 97 -189 49 -405 -120 -539 -161 -129 -371 -179 -582 -140 -249
46 -434 209 -469 413 l-11 65 -244 1 -243 1 5 -81 c6 -87 10 -115 31 -186 91
-304 401 -588 740 -676 66 -17 73 -19 161 -33 87 -13 327 -6 416 13 245 52
447 166 617 348 l54 58 87 -89 c96 -100 228 -191 343 -239 329 -137 640 -131
943 19 203 100 339 226 472 435 11 18 14 17 39 -16 31 -39 181 -190 232 -233
18 -15 73 -54 122 -86 184 -121 377 -196 580 -226 19 -3 46 -8 60 -11 34 -7
286 -6 346 1 533 70 978 404 1188 890 32 74 48 130 81 295 28 135 37 336 21
475 -56 491 -361 920 -815 1145 -176 88 -336 132 -531 148 -275 23 -521 -24
-765 -144 -141 -70 -164 -83 -260 -159 -242 -191 -396 -404 -498 -688 -6 -17
-13 -14 -57 23 -71 60 -199 134 -289 169 -89 34 -241 73 -314 80 -6 1 130 175
178 227 5 6 46 55 90 109 44 54 135 164 201 244 67 80 120 148 118 150 -2 2
-133 5 -290 5 l-286 1 -31 -40 c-18 -22 -37 -44 -43 -50 -6 -5 -35 -39 -65
-75 -30 -36 -56 -67 -59 -70 -3 -3 -55 -63 -115 -135 -60 -71 -112 -132 -115
-135 -3 -3 -28 -32 -55 -65 -28 -33 -62 -73 -76 -90 -298 -341 -508 -597 -521
-636 -2 -7 -30 7 -68 33 -82 56 -215 113 -302 129 -38 7 -68 15 -68 18 1 5
137 184 255 336 13 17 96 125 185 240 88 116 166 217 173 225 7 8 63 81 125
163 99 129 110 147 90 148 -13 0 -492 2 -1065 2 l-1043 2 0 -246z m4985 -283
c57 -9 84 -14 105 -21 10 -3 27 -8 38 -10 37 -7 156 -58 217 -93 232 -135 416
-378 464 -615 21 -102 29 -277 16 -352 -44 -249 -125 -408 -294 -572 -248
-241 -600 -333 -941 -245 -64 17 -173 62 -222 92 -27 17 -52 30 -57 30 -5 0
-11 3 -13 8 -1 4 -26 24 -55 45 -156 113 -310 342 -348 515 -3 12 -7 32 -10
43 -17 80 -23 236 -11 329 35 275 194 529 428 686 122 82 286 144 418 160 30
3 56 7 58 9 5 4 168 -3 207 -9z m-2110 -729 c184 -63 283 -148 357 -305 99
-208 85 -430 -38 -628 -55 -90 -115 -142 -219 -193 -101 -49 -199 -73 -295
-73 -161 0 -362 86 -455 195 -93 109 -160 291 -157 432 1 97 44 240 100 330
67 110 227 222 357 251 11 3 38 9 60 14 68 15 212 4 290 -23z"/>
<path d="M1369 2490 c-2 -38 1 -134 6 -138 4 -4 167 -4 171 1 2 1 4 36 5 77
l2 75 -91 0 c-76 1 -92 -2 -93 -15z"/>
<path d="M4144 2428 l0 -78 93 0 94 0 -3 78 -3 77 -91 1 -91 0 1 -78z"/>
<path d="M6264 2362 c1 -135 -3 -167 -19 -142 -4 6 -25 23 -48 38 -37 24 -51
27 -127 27 -75 0 -91 -3 -131 -27 -98 -58 -142 -140 -146 -270 -4 -145 46
-247 148 -303 100 -54 215 -41 291 32 15 15 29 23 29 17 1 -5 2 -22 3 -39 l1
-30 85 0 85 0 3 420 2 420 -88 1 -89 0 1 -144z m-56 -255 c38 -35 55 -77 55
-137 1 -102 -54 -164 -147 -164 -62 -1 -99 20 -130 74 -24 41 -26 133 -3 176
46 89 156 114 225 51z"/>
<path d="M532 2273 c-18 -9 -45 -32 -60 -52 -43 -59 -43 -59 -40 -1 l3 55 -87
3 c-49 1 -88 -1 -89 -5 -1 -11 -1 -562 0 -590 1 -20 6 -22 86 -22 81 0 85 1
86 22 0 12 1 81 2 152 2 107 6 138 24 176 27 60 82 95 156 98 15 1 17 12 17
91 l0 90 -32 0 c-18 0 -48 -8 -66 -17z"/>
<path d="M869 2276 c-138 -49 -211 -162 -205 -318 3 -108 51 -193 141 -252
124 -81 281 -73 394 22 29 24 32 30 22 47 -7 11 -30 32 -50 47 l-38 27 -36
-26 c-54 -38 -149 -44 -196 -11 -19 12 -42 39 -53 58 l-18 35 217 5 218 5 -1
65 c-4 133 -76 251 -180 289 -63 24 -159 27 -215 7z m171 -152 c30 -26 61 -82
53 -96 -2 -5 -62 -8 -133 -8 l-129 0 9 32 c26 90 133 128 200 72z"/>
<path d="M1945 2269 c-22 -11 -49 -30 -61 -40 -28 -26 -32 -24 -30 14 l1 32
-87 3 -87 3 -3 -143 c-2 -79 -2 -218 0 -311 l3 -167 87 2 87 3 1 190 c2 235
-1 211 33 246 39 38 106 41 139 6 34 -36 38 -66 37 -265 l-1 -183 88 2 88 1 0
189 c0 210 9 251 55 269 34 13 81 13 107 -1 40 -21 48 -66 48 -269 l0 -190 88
0 87 0 -1 222 c0 123 -4 239 -8 258 -35 154 -221 202 -362 94 -37 -28 -49 -33
-55 -23 -17 28 -25 36 -59 56 -50 29 -142 31 -195 2z"/>
<path d="M2875 2275 c-83 -18 -118 -33 -112 -48 2 -6 13 -38 22 -69 15 -46 21
-55 34 -49 19 10 77 21 138 27 63 6 122 -21 139 -62 21 -51 19 -58 -18 -49
-18 4 -66 9 -106 11 -166 7 -266 -66 -264 -192 1 -108 73 -181 191 -191 65 -6
112 6 166 43 36 24 51 19 43 -17 -2 -11 14 -14 82 -14 l85 0 1 195 c0 220 -10
284 -53 338 -45 57 -106 83 -205 87 -46 2 -110 -3 -143 -10z m209 -355 c54
-20 21 -109 -51 -136 -102 -39 -190 26 -142 105 26 44 120 59 193 31z"/>
<path d="M3560 2281 c-166 -51 -242 -245 -162 -415 44 -94 124 -146 231 -151
65 -3 123 15 173 55 24 20 38 25 41 17 5 -17 -13 -87 -30 -114 -40 -61 -179
-76 -291 -30 l-63 25 -30 -61 c-30 -58 -30 -61 -13 -74 34 -25 149 -54 224
-57 204 -8 325 61 365 209 5 17 9 157 10 313 l2 282 -89 0 -88 0 0 -35 c0 -35
-13 -47 -23 -21 -3 7 -29 25 -58 40 -55 27 -141 34 -199 17z m215 -161 c61
-38 82 -123 47 -189 -49 -91 -200 -95 -258 -6 -22 33 -26 92 -9 131 14 33 67
79 100 86 35 8 87 -2 120 -22z"/>
<path d="M4193 2283 l-43 -4 0 -308 0 -308 85 -1 c47 -1 85 2 86 6 1 4 2 143
3 310 l1 302 -32 0 c-17 0 -37 1 -45 3 -7 2 -32 2 -55 0z"/>
<path d="M4725 2271 c-22 -10 -52 -31 -67 -46 l-28 -28 0 42 0 41 -88 0 -87 0
0 -307 0 -308 88 -2 87 -2 0 178 c0 207 4 232 38 266 19 20 35 25 71 25 96 -1
108 -32 108 -275 l0 -190 87 -3 c65 -2 86 0 87 10 6 76 -2 446 -11 478 -13 50
-62 106 -108 125 -47 20 -129 18 -177 -4z"/>
<path d="M5330 2281 c-77 -25 -147 -85 -178 -154 -36 -78 -39 -92 -37 -164 3
-120 65 -217 176 -278 110 -60 266 -41 358 43 l40 37 -49 43 -49 43 -41 -27
c-82 -54 -199 -40 -241 30 -35 57 -38 56 197 56 l215 0 -2 58 c-6 140 -66 245
-169 298 -39 19 -177 29 -220 15z m144 -143 c29 -13 54 -47 66 -89 l9 -29
-135 0 -134 0 15 37 c18 44 42 72 70 84 29 12 80 11 109 -3z"/>
<path d="M1370 1971 l1 -309 87 2 87 1 1 308 2 307 -89 0 -89 0 0 -309z"/>
<path d="M6556 1841 c-1 -3 -2 -44 -1 -91 l1 -85 92 -3 c51 -1 92 1 93 5 1 13
1 147 0 164 -1 15 -14 17 -92 16 -49 0 -91 -3 -93 -6z"/>
</g>
</svg>
